<mxfile host="Electron" modified="2023-10-08T02:39:15.524Z" agent="Mozilla/5.0 (Windows NT 10.0; Win64; x64) AppleWebKit/537.36 (KHTML, like Gecko) draw.io/21.5.1 Chrome/112.0.5615.204 Electron/24.6.0 Safari/537.36" etag="G12Y7TnpCUjdapbMSmSR" version="21.5.1" type="device">
  <diagram name="Page-1" id="cKKAR5KbAFV18_qn8ZWi">
    <mxGraphModel dx="537" dy="573" grid="1" gridSize="10" guides="1" tooltips="1" connect="1" arrows="1" fold="1" page="1" pageScale="1" pageWidth="827" pageHeight="1169" math="0" shadow="0">
      <root>
        <mxCell id="0" />
        <mxCell id="1" parent="0" />
        <mxCell id="IkU8lw08QX-Zz79hLdik-12" value="scale out" style="edgeStyle=orthogonalEdgeStyle;rounded=0;orthogonalLoop=1;jettySize=auto;html=1;entryX=0.5;entryY=0;entryDx=0;entryDy=0;" edge="1" parent="1" source="IkU8lw08QX-Zz79hLdik-1" target="IkU8lw08QX-Zz79hLdik-2">
          <mxGeometry relative="1" as="geometry" />
        </mxCell>
        <mxCell id="IkU8lw08QX-Zz79hLdik-1" value="" style="sketch=0;points=[[0,0,0],[0.25,0,0],[0.5,0,0],[0.75,0,0],[1,0,0],[0,1,0],[0.25,1,0],[0.5,1,0],[0.75,1,0],[1,1,0],[0,0.25,0],[0,0.5,0],[0,0.75,0],[1,0.25,0],[1,0.5,0],[1,0.75,0]];outlineConnect=0;fontColor=#232F3E;gradientColor=#F78E04;gradientDirection=north;fillColor=#D05C17;strokeColor=#ffffff;dashed=0;verticalLabelPosition=bottom;verticalAlign=top;align=center;html=1;fontSize=12;fontStyle=0;aspect=fixed;shape=mxgraph.aws4.resourceIcon;resIcon=mxgraph.aws4.auto_scaling2;" vertex="1" parent="1">
          <mxGeometry x="401" y="170" width="78" height="78" as="geometry" />
        </mxCell>
        <mxCell id="IkU8lw08QX-Zz79hLdik-13" style="edgeStyle=orthogonalEdgeStyle;rounded=0;orthogonalLoop=1;jettySize=auto;html=1;entryX=0;entryY=0.5;entryDx=0;entryDy=0;" edge="1" parent="1" source="IkU8lw08QX-Zz79hLdik-2" target="IkU8lw08QX-Zz79hLdik-4">
          <mxGeometry relative="1" as="geometry" />
        </mxCell>
        <mxCell id="IkU8lw08QX-Zz79hLdik-2" value="Pending" style="rounded=0;whiteSpace=wrap;html=1;fontSize=14;fillColor=#dae8fc;strokeColor=#6c8ebf;" vertex="1" parent="1">
          <mxGeometry x="360" y="330" width="160" height="31" as="geometry" />
        </mxCell>
        <mxCell id="IkU8lw08QX-Zz79hLdik-19" style="edgeStyle=orthogonalEdgeStyle;rounded=0;orthogonalLoop=1;jettySize=auto;html=1;entryX=1;entryY=0.5;entryDx=0;entryDy=0;" edge="1" parent="1" source="IkU8lw08QX-Zz79hLdik-3" target="IkU8lw08QX-Zz79hLdik-17">
          <mxGeometry relative="1" as="geometry" />
        </mxCell>
        <mxCell id="IkU8lw08QX-Zz79hLdik-3" value="Terminating" style="rounded=0;whiteSpace=wrap;html=1;fontSize=14;fillColor=#dae8fc;strokeColor=#6c8ebf;" vertex="1" parent="1">
          <mxGeometry x="360" y="491" width="160" height="31" as="geometry" />
        </mxCell>
        <mxCell id="IkU8lw08QX-Zz79hLdik-14" style="edgeStyle=orthogonalEdgeStyle;rounded=0;orthogonalLoop=1;jettySize=auto;html=1;" edge="1" parent="1" source="IkU8lw08QX-Zz79hLdik-4" target="IkU8lw08QX-Zz79hLdik-11">
          <mxGeometry relative="1" as="geometry" />
        </mxCell>
        <mxCell id="IkU8lw08QX-Zz79hLdik-4" value="Pending:Wait" style="rounded=0;whiteSpace=wrap;html=1;fontSize=14;fillColor=#fff2cc;strokeColor=#d6b656;" vertex="1" parent="1">
          <mxGeometry x="600" y="330" width="150" height="31" as="geometry" />
        </mxCell>
        <mxCell id="IkU8lw08QX-Zz79hLdik-5" value="Terminated" style="rounded=0;whiteSpace=wrap;html=1;fontSize=14;fillColor=#f8cecc;strokeColor=#b85450;" vertex="1" parent="1">
          <mxGeometry x="360" y="560" width="160" height="31" as="geometry" />
        </mxCell>
        <mxCell id="IkU8lw08QX-Zz79hLdik-18" value="scanle in" style="edgeStyle=orthogonalEdgeStyle;rounded=0;orthogonalLoop=1;jettySize=auto;html=1;" edge="1" parent="1" source="IkU8lw08QX-Zz79hLdik-7" target="IkU8lw08QX-Zz79hLdik-3">
          <mxGeometry relative="1" as="geometry" />
        </mxCell>
        <mxCell id="IkU8lw08QX-Zz79hLdik-7" value="InService" style="rounded=0;whiteSpace=wrap;html=1;fontSize=14;fillColor=#d5e8d4;strokeColor=#82b366;" vertex="1" parent="1">
          <mxGeometry x="360" y="400" width="160" height="31" as="geometry" />
        </mxCell>
        <mxCell id="IkU8lw08QX-Zz79hLdik-15" style="edgeStyle=orthogonalEdgeStyle;rounded=0;orthogonalLoop=1;jettySize=auto;html=1;entryX=1;entryY=0.5;entryDx=0;entryDy=0;" edge="1" parent="1" source="IkU8lw08QX-Zz79hLdik-11" target="IkU8lw08QX-Zz79hLdik-7">
          <mxGeometry relative="1" as="geometry" />
        </mxCell>
        <mxCell id="IkU8lw08QX-Zz79hLdik-11" value="Pending:Proceed" style="rounded=0;whiteSpace=wrap;html=1;fontSize=14;fillColor=#dae8fc;strokeColor=#6c8ebf;" vertex="1" parent="1">
          <mxGeometry x="600" y="400" width="150" height="31" as="geometry" />
        </mxCell>
        <mxCell id="IkU8lw08QX-Zz79hLdik-20" style="edgeStyle=orthogonalEdgeStyle;rounded=0;orthogonalLoop=1;jettySize=auto;html=1;entryX=0;entryY=0.5;entryDx=0;entryDy=0;" edge="1" parent="1" source="IkU8lw08QX-Zz79hLdik-16" target="IkU8lw08QX-Zz79hLdik-5">
          <mxGeometry relative="1" as="geometry" />
        </mxCell>
        <mxCell id="IkU8lw08QX-Zz79hLdik-16" value="Terminating:Proceed" style="rounded=0;whiteSpace=wrap;html=1;fontSize=14;fillColor=#dae8fc;strokeColor=#6c8ebf;" vertex="1" parent="1">
          <mxGeometry x="130" y="560" width="160" height="31" as="geometry" />
        </mxCell>
        <mxCell id="IkU8lw08QX-Zz79hLdik-21" style="edgeStyle=orthogonalEdgeStyle;rounded=0;orthogonalLoop=1;jettySize=auto;html=1;entryX=0.5;entryY=0;entryDx=0;entryDy=0;" edge="1" parent="1" source="IkU8lw08QX-Zz79hLdik-17" target="IkU8lw08QX-Zz79hLdik-16">
          <mxGeometry relative="1" as="geometry" />
        </mxCell>
        <mxCell id="IkU8lw08QX-Zz79hLdik-17" value="Terminating:Wait" style="rounded=0;whiteSpace=wrap;html=1;fontSize=14;fillColor=#fff2cc;strokeColor=#d6b656;" vertex="1" parent="1">
          <mxGeometry x="130" y="491" width="160" height="31" as="geometry" />
        </mxCell>
        <mxCell id="IkU8lw08QX-Zz79hLdik-22" value="Lifecycle Hook&lt;br&gt;(EC2_Instance_Terminating)" style="rounded=0;whiteSpace=wrap;html=1;fillColor=none;dashed=1;verticalAlign=top;" vertex="1" parent="1">
          <mxGeometry x="110" y="440" width="200" height="170" as="geometry" />
        </mxCell>
        <mxCell id="IkU8lw08QX-Zz79hLdik-23" value="Lifecycle Hook&lt;br&gt;(EC2_Instance_Launching)" style="rounded=0;whiteSpace=wrap;html=1;fillColor=none;dashed=1;verticalAlign=top;" vertex="1" parent="1">
          <mxGeometry x="575" y="280" width="200" height="170" as="geometry" />
        </mxCell>
        <mxCell id="IkU8lw08QX-Zz79hLdik-25" value="1" style="ellipse;whiteSpace=wrap;html=1;aspect=fixed;" vertex="1" parent="1">
          <mxGeometry x="450" y="260" width="20" height="20" as="geometry" />
        </mxCell>
        <mxCell id="IkU8lw08QX-Zz79hLdik-26" value="2" style="ellipse;whiteSpace=wrap;html=1;aspect=fixed;" vertex="1" parent="1">
          <mxGeometry x="540" y="320" width="20" height="20" as="geometry" />
        </mxCell>
        <mxCell id="IkU8lw08QX-Zz79hLdik-27" value="3" style="ellipse;whiteSpace=wrap;html=1;aspect=fixed;" vertex="1" parent="1">
          <mxGeometry x="540" y="390" width="20" height="20" as="geometry" />
        </mxCell>
        <mxCell id="IkU8lw08QX-Zz79hLdik-28" value="4" style="ellipse;whiteSpace=wrap;html=1;aspect=fixed;" vertex="1" parent="1">
          <mxGeometry x="470" y="450" width="20" height="20" as="geometry" />
        </mxCell>
        <mxCell id="IkU8lw08QX-Zz79hLdik-29" value="5" style="ellipse;whiteSpace=wrap;html=1;aspect=fixed;" vertex="1" parent="1">
          <mxGeometry x="320" y="480" width="20" height="20" as="geometry" />
        </mxCell>
        <mxCell id="IkU8lw08QX-Zz79hLdik-30" value="6" style="ellipse;whiteSpace=wrap;html=1;aspect=fixed;" vertex="1" parent="1">
          <mxGeometry x="320" y="550" width="20" height="20" as="geometry" />
        </mxCell>
      </root>
    </mxGraphModel>
  </diagram>
</mxfile>
